<?xml version="1.0" encoding="utf-8"?>
<!-- Generator: Adobe Illustrator 23.0.2, SVG Export Plug-In . SVG Version: 6.00 Build 0)  -->
<svg version="1.1" id="Layer_1" xmlns="http://www.w3.org/2000/svg" xmlns:xlink="http://www.w3.org/1999/xlink" x="0px" y="0px"
	 viewBox="120 155 605 288" style="enable-background:new 120 155 605 288;" xml:space="preserve">
<style type="text/css">
	.st0{fill:#00A9CE;}
	.st1{fill:#FFFFFF;}
</style>
<g>
	<g>
		<path id="XMLID_12_" class="st0" d="M537.2,237.3h-22.1c-0.8,0-1.4,0.6-1.4,1.4v49.5c0,0.8,0.6,1.4,1.4,1.4h22.1
			c5,0,8.7-3.7,8.7-8.7V246C545.9,240.9,542.2,237.3,537.2,237.3z M540.4,279.9c0,2.8-1.7,4.6-4.6,4.6h-16.7v-42.1h16.7
			c2.8,0,4.6,1.7,4.6,4.6V279.9z"/>
		<path id="XMLID_11_" class="st0" d="M567.8,307.4H551c-0.8,0-1.4,0.6-1.4,1.4v5.4c0,0.8,0.6,1.4,1.4,1.4h9.1v42.6
			c0,0.8,0.6,1.4,1.4,1.4h6.2c0.8,0,1.4-0.6,1.4-1.4v-49.5C569.2,308,568.5,307.4,567.8,307.4z"/>
		<path id="XMLID_8_" class="st0" d="M536.3,329.7c-3.8,0-9.3,0.9-13.6,2.3v-14.3c0-1.2,0.9-2,2.1-2h15.1c0.8,0,1.4-0.6,1.4-1.4
			v-5.4c0-0.8-0.6-1.4-1.4-1.4H522c-4.6,0-8.3,3.7-8.3,8.2v35.8c0,4.6,3.6,8.2,8.2,8.2h14.4c4.6,0,8.3-3.7,8.3-8.2v-13.5
			C544.6,333.3,541.6,329.7,536.3,329.7z M535.6,349.4c0,1.2-0.9,2-2.1,2h-8.6c-1.2,0-2.1-0.9-2.1-2v-7c0-1.2,0.6-2.1,2.1-2.6
			c1.9-0.6,6.7-1.6,8.6-1.6c1.3,0,2.1,0.9,2.1,2V349.4z"/>
		<path id="XMLID_7_" class="st0" d="M625.4,237.3h-33.9c-0.8,0-1.4,0.6-1.4,1.4v2.3c0,0.8,0.6,1.4,1.4,1.4h14.2v45.8
			c0,0.8,0.6,1.4,1.4,1.4h2.7c0.8,0,1.4-0.6,1.4-1.4v-45.8h14.1c0.8,0,1.4-0.6,1.4-1.4v-2.3C626.8,237.9,626.2,237.3,625.4,237.3z"
			/>
		<path id="XMLID_4_" class="st0" d="M593.4,287.7L593.4,287.7l-17.1-49.5c-0.2-0.5-0.7-0.9-1.3-0.9h-3.2c-0.6,0-1.1,0.4-1.3,0.9
			l-17.1,49.5l0,0c-0.1,0.1-0.1,0.3-0.1,0.5c0,0.8,0.6,1.4,1.4,1.4h2.6c0.6,0,1.1-0.4,1.3-0.9l0,0l4.2-12.6h20.9l4.4,12.5v0
			c0.2,0.6,0.7,1,1.3,1h2.6c0.8,0,1.4-0.6,1.4-1.4C593.5,288,593.5,287.8,593.4,287.7z M564.6,271l8.8-26.9l8.7,26.9H564.6z"/>
		<path id="XMLID_1_" class="st0" d="M664.1,287.7L664.1,287.7L647,238.2c-0.2-0.5-0.7-0.9-1.3-0.9h-3.2c-0.6,0-1.1,0.4-1.3,0.9
			L624,287.6l0.2,0.1c-0.1,0.1-0.1,0.3-0.1,0.5c0,0.8,0.6,1.4,1.4,1.4h2.6c0.6,0,1.1-0.4,1.3-0.9l0,0l4.2-12.6h20.9l4.4,12.5v0
			c0.2,0.6,0.7,1,1.3,1h2.6c0.8,0,1.4-0.6,1.4-1.4C664.2,288,664.2,287.8,664.1,287.7z M635.3,271l8.8-26.9l8.7,26.9H635.3z"/>
	</g>
	<g>
		<path class="st0" d="M721.6,245.4L721.6,245.4L721.6,245.4L721.6,245.4l-5-2.9c-0.3-0.2-0.7-0.3-1.1-0.3c-0.4,0-0.8,0.1-1.1,0.3
			l-5,2.9h0l0,0h0c-0.6,0.4-1,1-1,1.8v102.6c0,0.8,0.4,1.4,1,1.8l0,0l0,0h0l5,2.9c0.3,0.2,0.7,0.3,1.1,0.3c0.4,0,0.8-0.1,1.1-0.3
			l5-2.9h0h0h0c0.6-0.4,1-1,1-1.8c0-11.6,0-102.6,0-102.6C722.6,246.4,722.2,245.8,721.6,245.4z"/>
		<g>
			<g>
				<path class="st0" d="M476.5,210.1L476.5,210.1L476.5,210.1L476.5,210.1l0,5.8c0,0.4,0.1,0.7,0.3,1.1c0.2,0.3,0.5,0.6,0.8,0.8
					l5,2.9l0,0h0l0,0c0.6,0.3,1.4,0.4,2.1,0l88.8-51.3c0.7-0.4,1-1.1,1-1.8l0,0v0l0,0l0-5.8c0-0.4-0.1-0.7-0.3-1.1
					c-0.2-0.3-0.5-0.6-0.8-0.8l-5-2.9l0,0l0,0v0c-0.6-0.3-1.4-0.4-2.1,0c-10,5.8-88.8,51.3-88.8,51.3
					C476.9,208.7,476.6,209.4,476.5,210.1z"/>
				<path class="st0" d="M482.6,376.3L482.6,376.3L482.6,376.3L482.6,376.3l-5,2.9c-0.3,0.2-0.6,0.5-0.8,0.8
					c-0.2,0.3-0.3,0.7-0.3,1.1v5.8l0,0l0,0l0,0c0,0.7,0.4,1.4,1,1.8l88.8,51.3c0.7,0.4,1.4,0.3,2.1,0h0h0l0,0l5-2.9
					c0.3-0.2,0.6-0.5,0.8-0.8c0.2-0.3,0.3-0.7,0.3-1.1l0-5.8l0,0h0h0c0-0.7-0.4-1.4-1-1.8c-10-5.8-88.8-51.3-88.8-51.3
					C484.1,375.9,483.3,376,482.6,376.3z"/>
				<g>
					<path class="st0" d="M603.1,429.4L603.1,429.4L603.1,429.4L603.1,429.4l0,5.8c0,0.4,0.1,0.7,0.3,1.1c0.2,0.3,0.5,0.6,0.8,0.8
						l5,2.9l0,0h0l0,0c0.6,0.3,1.4,0.4,2.1,0l88.8-51.3c0.7-0.4,1-1.1,1-1.8v0v0l0,0l0-5.8c0-0.4-0.1-0.7-0.3-1.1
						c-0.2-0.3-0.5-0.6-0.8-0.8l-5-2.9l0,0h0v0c-0.6-0.3-1.4-0.4-2.1,0c-10,5.8-88.8,51.3-88.8,51.3
						C603.5,428,603.2,428.7,603.1,429.4z"/>
				</g>
			</g>
			<path class="st0" d="M468.4,245.4L468.4,245.4L468.4,245.4L468.4,245.4l-5-2.9c-0.3-0.2-0.7-0.3-1.1-0.3c-0.4,0-0.8,0.1-1.1,0.3
				l-5,2.9h0v0l0,0c-0.6,0.4-1,1-1,1.8v102.6c0,0.8,0.4,1.4,1,1.8h0h0h0l5,2.9c0.3,0.2,0.7,0.3,1.1,0.3c0.4,0,0.8-0.1,1.1-0.3l5-2.9
				h0h0h0c0.6-0.4,1-1,1-1.8c0-11.6,0-102.6,0-102.6C469.4,246.4,469,245.8,468.4,245.4z"/>
		</g>
	</g>
</g>
<g>
	<g>
		<circle class="st0" cx="262.9" cy="298.5" r="141.7"/>
	</g>
	<g>
		<g>
			<path class="st1" d="M184.4,372.6c-12.9,0-22.5-10-22.5-22.5v-0.1c0-12.5,9.4-22.7,22.9-22.7c8.3,0,13.2,2.8,17.3,6.8l-6.1,7.1
				c-3.4-3.1-6.8-4.9-11.2-4.9c-7.4,0-12.7,6.1-12.7,13.7v0.1c0,7.5,5.2,13.8,12.7,13.8c5,0,8.1-2,11.5-5.1l6.1,6.2
				C197.9,369.6,192.9,372.6,184.4,372.6z"/>
			<path class="st1" d="M227.3,372.5c-6.6,0-13.3-2.3-18.6-7l5.7-6.8c4,3.3,8.1,5.3,13.1,5.3c3.9,0,6.3-1.6,6.3-4.1v-0.1
				c0-2.4-1.5-3.7-8.8-5.6c-8.8-2.3-14.5-4.7-14.5-13.4v-0.1c0-8,6.4-13.2,15.3-13.2c6.4,0,11.8,2,16.3,5.6l-5,7.3
				c-3.9-2.7-7.7-4.3-11.4-4.3c-3.7,0-5.6,1.7-5.6,3.8v0.1c0,2.9,1.9,3.8,9.5,5.8c8.9,2.3,13.9,5.5,13.9,13.2v0.1
				C243.4,367.6,236.7,372.5,227.3,372.5z"/>
			<path class="st1" d="M254,371.9v-22.5V328h9.6v21.3v22.5H254z"/>
			<path class="st1" d="M302.6,371.9l-9.4-14h-7.6v14H276V328h20c10.3,0,16.5,5.5,16.5,14.5v0.1c0,7.1-3.8,11.5-9.4,13.6l10.7,15.7
				H302.6z M302.8,343c0-4.1-2.9-6.3-7.6-6.3h-9.6v12.6h9.8c4.7,0,7.4-2.5,7.4-6.2V343z"/>
			<path class="st1" d="M342.6,372.6c-13.5,0-23.2-10.1-23.2-22.5v-0.1c0-12.5,9.8-22.7,23.4-22.7c13.5,0,23.2,10.1,23.2,22.6v0.1
				C366,362.4,356.1,372.6,342.6,372.6z M355.9,349.9c0-7.5-5.5-13.8-13.3-13.8c-7.8,0-13.2,6.1-13.2,13.7v0.1
				c0,7.5,5.5,13.8,13.3,13.8c7.8,0,13.2-6.1,13.2-13.7V349.9z"/>
		</g>
		<g>
			<path class="st1" d="M306.3,305.6c0,4.2-3.4,7.6-7.6,7.6c-4.2,0-7.6-3.4-7.6-7.6c0-4.2,3.4-7.6,7.6-7.6
				C302.9,298,306.3,301.4,306.3,305.6z"/>
			<path class="st1" d="M275.2,210.3c-3.9,0-7,3.2-7,7v60.2c0,3.9,3.2,7,7,7c3.9,0,7-3.2,7-7v-60.2
				C282.2,213.4,279,210.3,275.2,210.3z"/>
			<path class="st1" d="M228.1,203.5c-3.9,0-7,3.2-7,7V264c0,3.9,3.2,7,7,7c3.9,0,7-3.2,7-7v-53.4
				C235.1,206.7,231.9,203.5,228.1,203.5z"/>
			<path class="st1" d="M322.3,223.8c-3.9,0-7,3.1-7,7v39.9c0,3.9,3.2,7,7,7c3.9,0,7-3.2,7-7v-39.9
				C329.3,226.9,326.1,223.8,322.3,223.8z"/>
			<path class="st1" d="M204.5,223.8c-3.9,0-7,3.1-7,7v39.9c0,3.9,3.1,7,7,7c3.9,0,7-3.2,7-7v-39.9
				C211.5,226.9,208.4,223.8,204.5,223.8z"/>
			<path class="st1" d="M298.7,190c-3.9,0-7,3.2-7,7v87.2c0,3.9,3.2,7,7,7c3.9,0,7-3.2,7-7V197C305.7,193.2,302.6,190,298.7,190z"/>
			<path class="st1" d="M251.6,190c-3.9,0-7,3.2-7,7v60.2c0,3.9,3.2,7,7,7c3.9,0,7-3.1,7-7V197C258.6,193.2,255.5,190,251.6,190z"/>
		</g>
	</g>
</g>
</svg>
