<?xml version="1.0" encoding="UTF-8"?>
<svg width="40px" height="40px" viewBox="0 0 40 40" version="1.1" xmlns="http://www.w3.org/2000/svg" xmlns:xlink="http://www.w3.org/1999/xlink">
    <!-- Generator: Sketch 61.2 (89653) - https://sketch.com -->
    <title>Slice</title>
    <desc>Created with Sketch.</desc>
    <g id="Page-1" stroke="none" stroke-width="1" fill="none" fill-rule="evenodd">
        <rect id="Rectangle" stroke="#6A6A6A" stroke-width="2" fill="#FFFFFF" transform="translate(20.000000, 20.000000) rotate(45.000000) translate(-20.000000, -20.000000) " x="6" y="6" width="28" height="28" rx="3"></rect>
        <g id="flame" transform="translate(19.500000, 19.000000) scale(-1, 1) translate(-19.500000, -19.000000) translate(12.000000, 8.000000)" fill="#E7E6E3" fill-rule="nonzero">
            <path d="M3.76927201,21.9710815 C3.9917292,22.0853233 4.22639213,21.8379312 4.09019386,21.6331731 C3.35092746,20.521706 2.6508832,18.6514187 3.76622057,16.2427426 C5.62618296,12.2260538 6.75796832,10.1456881 6.75796832,10.1456881 C6.75796832,10.1456881 7.35995727,12.5734524 8.99180615,14.7320762 C10.5623658,16.809602 11.4220151,19.422461 10.0361418,21.5991306 C9.90608361,21.8034214 10.1354251,22.0444508 10.356431,21.9352057 C12.0719339,21.0874869 13.9960509,19.3870526 14.2131495,16.0032231 C14.2931939,14.9692232 14.1731459,13.5216091 13.5728687,11.6948545 C12.8010413,9.37960651 11.8521933,8.29927009 11.3031951,7.83532899 C11.1389757,7.6965349 10.8835853,7.81954795 10.8970563,8.02991393 C11.0570335,10.5280638 10.0841461,11.1620016 9.53038475,9.73333194 C9.30923,9.16269805 9.18025098,8.17571782 9.18025098,6.97377031 C9.18025098,4.97274123 8.57926677,2.91286576 7.25431057,1.23899676 C6.9097587,0.803705983 6.50659691,0.396957685 6.04404374,0.0500982654 C5.87658684,-0.0755030208 5.63384877,0.0507453241 5.64918038,0.255000192 C5.75091975,1.61152284 5.65874403,5.49923134 2.12797112,10.1438188 C-1.07339545,14.4521874 0.167125258,17.760994 0.607313627,18.6571703 C1.44891479,20.3739968 2.62282487,21.3822222 3.76927201,21.9710815 Z" id="Path"></path>
        </g>
    </g>
</svg>