<?xml version="1.0" encoding="UTF-8" standalone="no"?>
<svg width="87px" height="65px" viewBox="0 0 87 65" version="1.1" xmlns="http://www.w3.org/2000/svg" xmlns:xlink="http://www.w3.org/1999/xlink" xmlns:sketch="http://www.bohemiancoding.com/sketch/ns">
    <!-- Generator: Sketch 3.3.3 (12081) - http://www.bohemiancoding.com/sketch -->
    <title>AUOpen_MONO sRGB rev</title>
    <desc>Created with Sketch.</desc>
    <defs>
        <path id="path-1" d="M0,0 L87,0 L87,65 L0,65"></path>
    </defs>
    <g id="Page-1" stroke="none" stroke-width="1" fill="none" fill-rule="evenodd" sketch:type="MSPage">
        <g id="AUOpen_MONO-sRGB-rev" sketch:type="MSLayerGroup">
            <path d="M24.1419585,20.3047619 C24.2735231,20.3047619 24.3948767,20.3542614 24.4557498,20.5409237 C25.1540239,22.6848952 25.7611845,24.8583398 26.3381049,27.0019334 C26.3785561,27.1300276 26.2976537,27.2380952 26.1660892,27.2380952 L24.6583985,27.2380952 C24.4965938,27.2380952 24.3948767,27.1300276 24.3646365,27.0019334 L24.1627732,26.0187445 L22.2902364,26.0187445 L22.0875877,27.0019334 C22.0675585,27.1300276 21.9560232,27.2380952 21.8044294,27.2380952 L20.316768,27.2380952 C20.1852034,27.2380952 20.104301,27.1300276 20.1447522,27.0019334 C20.7216727,24.8583398 21.3284406,22.6848952 22.0271073,20.5409237 C22.0981914,20.3149641 22.2089413,20.3047619 22.3408986,20.3047619 L24.1419585,20.3047619 L24.1419585,20.3047619 Z M23.2111884,21.5834365 L22.5537583,24.7502721 L23.8992514,24.7502721 L23.2516396,21.5834365 L23.2111884,21.5834365 L23.2111884,21.5834365 Z" id="Fill-1" fill="#FFFFFF" sketch:type="MSShapeGroup"></path>
            <path d="M26.3384478,26.1435665 C26.1698366,25.7730137 26.1,25.3224245 26.1,24.8918444 L26.1,20.5452557 C26.1,20.4151967 26.2091921,20.3047619 26.3384478,20.3047619 L27.6016808,20.3047619 C27.7305507,20.3047619 27.8401286,20.4151967 27.8401286,20.5452557 L27.8401286,24.8918444 C27.8401286,25.4024608 28.0288033,25.893453 28.705177,25.893453 C29.3811649,25.893453 29.5702254,25.4024608 29.5702254,24.8918444 L29.5702254,20.5452557 C29.5702254,20.4151967 29.6794175,20.3047619 29.8086732,20.3047619 L31.0815522,20.3047619 C31.2104221,20.3047619 31.32,20.4151967 31.32,20.5452557 L31.32,24.8918444 C31.32,25.3224245 31.2501634,25.7730137 31.0815522,26.1435665 C30.6540439,27.0751433 29.7589001,27.4857143 28.705177,27.4857143 C27.6514539,27.4857143 26.7663419,27.0751433 26.3384478,26.1435665" id="Fill-2" fill="#FFFFFF" sketch:type="MSShapeGroup"></path>
            <path d="M34.2549726,25.5322461 C34.2549726,25.1755776 34.0143819,24.9105232 33.1213156,24.3299091 C32.4696185,23.9019852 31.8171429,23.2802622 31.8171429,22.3938763 C31.8171429,21.761974 32.1383197,21.2017186 32.629623,20.8246914 C33.1314375,20.4476642 33.703327,20.3047619 34.3254368,20.3047619 C34.7669091,20.3047619 35.4489719,20.3454793 35.9605191,20.5087403 C36.1209129,20.5698163 36.1610113,20.6817891 36.1610113,20.8043327 L36.1610113,21.8332294 C36.1610113,22.0473872 36.0710818,22.1288219 35.8702002,22.0779252 C35.3084327,21.925235 34.9775232,21.9146642 34.7065667,21.9146642 C34.365146,21.9146642 33.8641101,22.0779252 33.8641101,22.5262078 C33.8641101,22.8421589 34.1249446,23.097034 34.7669091,23.5143871 C36.0006175,24.3095504 36.2914286,24.9414527 36.2914286,25.6649691 C36.2914286,26.4699202 35.8199799,27.2846592 35.067842,27.5497136 C34.7669091,27.6620779 34.4558541,27.7333333 33.8337443,27.7333333 C33.3922721,27.7333333 32.6599888,27.6922244 32.1581743,27.529355 C31.9977805,27.4682789 31.9580714,27.3563061 31.9580714,27.2337625 L31.9580714,26.2252245 C31.9580714,26.0212461 32.0880993,25.929632 32.2488824,25.9805287 C32.8001387,26.1433982 33.1415595,26.1539691 33.4020047,26.1539691 C33.8240116,26.1539691 34.2549726,26.0212461 34.2549726,25.5322461" id="Fill-3" fill="#FFFFFF" sketch:type="MSShapeGroup"></path>
            <path d="M40.7764523,20.3047619 C40.9051667,20.3047619 41.0142857,20.4132074 41.0142857,20.5409237 L41.0142857,21.6423825 C41.0142857,21.7704767 40.9051667,21.86872 40.7764523,21.86872 L39.5089038,21.86872 L39.5089038,27.0019334 C39.5089038,27.1300276 39.4101588,27.2380952 39.2814444,27.2380952 L38.0238857,27.2380952 C37.8955555,27.2380952 37.7864365,27.1300276 37.7864365,27.0019334 L37.7864365,21.86872 L36.529262,21.86872 C36.4005476,21.86872 36.2914286,21.7704767 36.2914286,21.6423825 L36.2914286,20.5409237 C36.2914286,20.4132074 36.4005476,20.3047619 36.529262,20.3047619 L40.7764523,20.3047619" id="Fill-4" fill="#FFFFFF" sketch:type="MSShapeGroup"></path>
            <path d="M41.5114286,20.5409237 C41.5114286,20.4132074 41.6218251,20.3047619 41.7520464,20.3047619 L43.6649386,20.3047619 C44.0758158,20.3047619 44.4361595,20.3149641 44.8769682,20.4328561 C45.8087305,20.6984909 46.3793718,21.4851932 46.3793718,22.4392869 C46.3793718,22.9701787 46.2091124,23.4323002 45.8884182,23.786354 C45.6485778,24.0519888 45.3780285,24.2288268 44.977258,24.3565431 L44.977258,24.3761918 C45.3881353,24.8779884 46.1092113,25.9794472 46.700066,26.9531896 C46.7902491,27.1005546 46.6701345,27.2380952 46.5399133,27.2380952 L44.9271131,27.2380952 C44.7968918,27.2380952 44.6767773,27.1398519 44.6165256,27.0219599 L43.2746635,24.4060426 L43.25445,24.4060426 L43.25445,27.0023113 C43.25445,27.1300276 43.1541602,27.2282709 43.0340456,27.2380952 L41.7520464,27.2380952 C41.6218251,27.2380952 41.5114286,27.1300276 41.5114286,27.0023113 L41.5114286,20.5409237 L41.5114286,20.5409237 Z M43.25445,21.7406258 L43.25445,23.5112727 L43.544824,23.5112727 C44.1659989,23.5112727 44.5967009,23.2059627 44.5967009,22.5768276 C44.5967009,22.1048818 44.2359686,21.7406258 43.6451138,21.7406258 L43.25445,21.7406258 L43.25445,21.7406258 Z" id="Fill-5" fill="#FFFFFF" sketch:type="MSShapeGroup"></path>
            <path d="M50.7391014,20.3047619 C50.8710587,20.3047619 50.9920195,20.3542614 51.0528927,20.5409237 C51.7511667,22.6848952 52.3587201,24.8583398 52.9352478,27.0019334 C52.975699,27.1300276 52.8947966,27.2380952 52.763232,27.2380952 L51.2551487,27.2380952 C51.0933439,27.2380952 50.9920195,27.1300276 50.9621721,27.0019334 L50.7595234,26.0187445 L48.8873793,26.0187445 L48.6851233,27.0019334 C48.6647013,27.1300276 48.553166,27.2380952 48.4015722,27.2380952 L46.9139108,27.2380952 C46.7823463,27.2380952 46.7014439,27.1300276 46.7418951,27.0019334 C47.3184228,24.8583398 47.9259761,22.6848952 48.6242502,20.5409237 C48.6949416,20.3149641 48.8064769,20.3047619 48.9380415,20.3047619 L50.7391014,20.3047619 L50.7391014,20.3047619 Z M49.8083312,21.5834365 L49.1505084,24.7502721 L50.4963942,24.7502721 L49.8487824,21.5834365 L49.8083312,21.5834365 L49.8083312,21.5834365 Z" id="Fill-6" fill="#FFFFFF" sketch:type="MSShapeGroup"></path>
            <path d="M53.1942857,20.5409237 C53.1942857,20.4132074 53.3013466,20.3047619 53.4280795,20.3047619 L54.6761147,20.3047619 C54.8126836,20.3047619 54.9099085,20.4132074 54.9099085,20.5409237 L54.9099085,25.6352177 L56.9376348,25.6352177 C57.0643677,25.6352177 57.1714286,25.7432853 57.1714286,25.8713795 L57.1714286,27.0023113 C57.1714286,27.1300276 57.0643677,27.2380952 56.9376348,27.2380952 L53.4280795,27.2380952 C53.3013466,27.2380952 53.1942857,27.1300276 53.1942857,27.0023113 L53.1942857,20.5409237" id="Fill-7" fill="#FFFFFF" sketch:type="MSShapeGroup"></path>
            <path d="M57.6685714,20.5409237 C57.6685714,20.4132074 57.7784131,20.3047619 57.9084376,20.3047619 L59.1687053,20.3047619 C59.2987298,20.3047619 59.4085714,20.4132074 59.4085714,20.5409237 L59.4085714,27.0023113 C59.4085714,27.1300276 59.2987298,27.2380952 59.1687053,27.2380952 L57.9084376,27.2380952 C57.7784131,27.2380952 57.6685714,27.1300276 57.6685714,27.0023113 L57.6685714,20.5409237" id="Fill-8" fill="#FFFFFF" sketch:type="MSShapeGroup"></path>
            <path d="M63.665008,20.3047619 C63.7965742,20.3047619 63.9179293,20.3542614 63.9784104,20.5409237 C64.6770858,22.6848952 65.2842539,24.8583398 65.8607887,27.0023113 C65.9016331,27.1300276 65.8207297,27.2380952 65.6891636,27.2380952 L64.1810616,27.2380952 C64.0192549,27.2380952 63.9179293,27.1300276 63.8876887,27.0023113 L63.6854302,26.0187445 L61.8132631,26.0187445 L61.6106119,27.0023113 C61.5905824,27.1300276 61.4790457,27.2380952 61.3270573,27.2380952 L59.8393776,27.2380952 C59.7082041,27.2380952 59.626908,27.1300276 59.6677525,27.0019334 C60.2442873,24.8583398 60.8518481,22.6848952 61.549738,20.5409237 C61.620823,20.3149641 61.731967,20.3047619 61.8635331,20.3047619 L63.665008,20.3047619 L63.665008,20.3047619 Z M62.7338336,21.5834365 L62.0763954,24.7502721 L63.4219051,24.7502721 L62.7742853,21.5834365 L62.7338336,21.5834365 L62.7338336,21.5834365 Z" id="Fill-9" fill="#FFFFFF" sketch:type="MSShapeGroup"></path>
            <path d="M22.3714286,32.4431849 C22.3714286,30.5478695 23.495696,28.7238095 25.4785714,28.7238095 C27.4514942,28.7238095 28.5857143,30.5478695 28.5857143,32.4431849 C28.5857143,34.389397 27.5008747,36.152381 25.4785714,36.152381 C23.4566509,36.152381 22.3714286,34.389397 22.3714286,32.4431849 M24.2356377,32.4228262 C24.2356377,33.2379567 24.4722047,34.3995764 25.4785714,34.3995764 C26.4749855,34.3995764 26.7115525,33.2379567 26.7115525,32.4228262 C26.7115525,31.6076957 26.4749855,30.4460761 25.4785714,30.4460761 C24.4722047,30.4460761 24.2356377,31.6076957 24.2356377,32.4228262" id="Fill-10" fill="#FFFFFF" sketch:type="MSShapeGroup"></path>
            <path d="M29.0828571,29.2072125 C29.0828571,29.0794962 29.1911427,28.9714286 29.3193252,28.9714286 L30.9068756,28.9714286 C31.508377,28.9714286 32.1887011,28.9910772 32.7408426,29.315658 C33.1942644,29.5714685 33.5298348,29.9644418 33.7069946,30.5350088 C33.7858173,30.7908193 33.8057143,31.0564541 33.8057143,31.3315354 C33.8057143,31.9315754 33.618606,32.5021423 33.2635213,32.9249665 C32.898488,33.3576149 32.2476268,33.7018444 31.5477883,33.7018444 L30.7985901,33.7018444 L30.7985901,35.6686001 C30.7985901,35.7963164 30.6903045,35.9047619 30.5617393,35.9047619 L29.3193252,35.9047619 C29.1911427,35.9047619 29.0828571,35.7963164 29.0828571,35.6686001 L29.0828571,29.2072125 L29.0828571,29.2072125 Z M30.7985901,30.4072925 L30.7985901,32.3052778 L31.104315,32.3052778 C31.3901429,32.3052778 31.6759709,32.2168588 31.8435648,32.0494673 C32.0015928,31.8824537 32.0899814,31.6266432 32.0899814,31.3315354 C32.0899814,30.5743061 31.606714,30.4072925 30.9367211,30.4072925 L30.7985901,30.4072925 L30.7985901,30.4072925 Z" id="Fill-11" fill="#FFFFFF" sketch:type="MSShapeGroup"></path>
            <path d="M34.3028571,29.2072125 C34.3028571,29.0794962 34.4099079,28.9714286 34.537007,28.9714286 L38.0458502,28.9714286 C38.172571,28.9714286 38.28,29.0794962 38.28,29.2075904 L38.28,30.2894005 C38.28,30.4171168 38.172571,30.5153601 38.0458502,30.5153601 L35.999025,30.5153601 L35.999025,31.7154401 L37.9092943,31.7154401 C38.0360151,31.7154401 38.1336091,31.8235077 38.1336091,31.951224 L38.1336091,32.8754669 C38.1336091,33.0035611 38.0360151,33.1116288 37.9092943,33.1116288 L35.999025,33.1116288 L35.999025,34.3211552 L38.0458502,34.3211552 C38.172571,34.3211552 38.28,34.4296007 38.28,34.557317 L38.28,35.6686001 C38.28,35.7963164 38.172571,35.9047619 38.0458502,35.9047619 L34.537007,35.9047619 C34.4099079,35.9047619 34.3028571,35.7963164 34.3028571,35.6686001 L34.3028571,29.2072125" id="Fill-12" fill="#FFFFFF" sketch:type="MSShapeGroup"></path>
            <path d="M42.6732162,32.757575 L42.5951409,29.2072125 C42.5951409,29.0794962 42.6925456,28.9714286 42.8293669,28.9714286 L44.0111092,28.9714286 C44.1380764,28.9714286 44.2457143,29.0794962 44.2457143,29.2072125 L44.2457143,35.6686001 C44.2457143,35.7963164 44.1574058,35.9047619 44.0012551,35.9047619 L42.6440327,35.9047619 C42.487503,35.9047619 42.3897193,35.8359916 42.3510607,35.7177217 L40.8664921,32.3543995 L40.8467838,32.3543995 L40.9248591,35.6686001 C40.9248591,35.7963164 40.8172213,35.9047619 40.6906331,35.9047619 L39.5088908,35.9047619 C39.3819236,35.9047619 39.2742857,35.7963164 39.2742857,35.6686001 L39.2742857,29.2072125 C39.2742857,29.0794962 39.3622152,28.9714286 39.5187449,28.9714286 L40.7785626,28.9714286 C40.9248591,28.9714286 41.0127886,29.0401989 41.0616805,29.1584687 L42.6535079,32.757575 L42.6732162,32.757575" id="Fill-13" fill="#FFFFFF" sketch:type="MSShapeGroup"></path>
            <path d="M51.2205141,28.9714286 C51.3468567,28.9714286 51.4542857,29.0794962 51.4542857,29.2075904 L51.4542857,30.2894005 C51.4542857,30.4171168 51.3468567,30.5153601 51.2205141,30.5153601 L49.1733107,30.5153601 L49.1733107,31.8529807 L51.0839583,31.8529807 C51.2106791,31.8529807 51.3082731,31.9610484 51.3082731,32.0891425 L51.3082731,33.0330341 C51.3082731,33.1607504 51.2106791,33.2589937 51.0839583,33.2589937 L49.1733107,33.2589937 L49.1733107,35.6686001 C49.1733107,35.7963164 49.06626,35.9047619 48.9395391,35.9047619 L47.7112927,35.9047619 C47.5845719,35.9047619 47.4771429,35.7963164 47.4771429,35.6686001 L47.4771429,29.2075904 C47.4771429,29.0794962 47.5845719,28.9714286 47.7112927,28.9714286 L51.2205141,28.9714286" id="Fill-14" fill="#FFFFFF" sketch:type="MSShapeGroup"></path>
            <path d="M51.7028571,32.4431849 C51.7028571,30.5478695 52.8275073,28.7238095 54.81,28.7238095 C56.7829228,28.7238095 57.9171429,30.5478695 57.9171429,32.4431849 C57.9171429,34.389397 56.8323033,36.152381 54.81,36.152381 C52.7880795,36.152381 51.7028571,34.389397 51.7028571,32.4431849 M53.5674491,32.4228262 C53.5674491,33.2379567 53.8036333,34.3995764 54.81,34.3995764 C55.8060313,34.3995764 56.042981,33.2379567 56.042981,32.4228262 C56.042981,31.6076957 55.8060313,30.4460761 54.81,30.4460761 C53.8036333,30.4460761 53.5674491,31.6076957 53.5674491,32.4228262" id="Fill-15" fill="#FFFFFF" sketch:type="MSShapeGroup"></path>
            <path d="M58.4142857,29.2075904 C58.4142857,29.0794962 58.5246823,28.9714286 58.6549035,28.9714286 L60.5677957,28.9714286 C60.978673,28.9714286 61.3390166,28.9812529 61.7798253,29.0991449 C62.7115877,29.3647797 63.282229,30.151482 63.282229,31.1055758 C63.282229,31.6364675 63.1119695,32.098589 62.7912753,32.4530207 C62.551435,32.7182776 62.2808857,32.8951156 61.8801151,33.0232098 L61.8801151,33.0428584 C62.2906037,33.5446551 63.0120684,34.645736 63.6029231,35.6194784 C63.6931062,35.7672213 63.5729917,35.9047619 63.4427704,35.9047619 L61.8299702,35.9047619 C61.7001377,35.9047619 61.5796344,35.8065186 61.5193828,35.6882487 L60.1775206,33.0723314 L60.1573072,33.0723314 L60.1573072,35.6686001 C60.1573072,35.7963164 60.0570173,35.8945597 59.9369028,35.9047619 L58.6549035,35.9047619 C58.5246823,35.9047619 58.4142857,35.7963164 58.4142857,35.6686001 L58.4142857,29.2075904 L58.4142857,29.2075904 Z M60.1573072,30.4072925 L60.1573072,32.1775615 L60.4476812,32.1775615 C61.0688561,32.1775615 61.4995581,31.8726294 61.4995581,31.2431164 C61.4995581,30.7711706 61.1388257,30.4072925 60.547971,30.4072925 L60.1573072,30.4072925 L60.1573072,30.4072925 Z" id="Fill-16" fill="#FFFFFF" sketch:type="MSShapeGroup"></path>
            <path d="M23.3657143,37.8742571 C23.3657143,37.7461629 23.4766784,37.6380952 23.6084238,37.6380952 L25.679493,37.6380952 C26.5487774,37.6380952 27.3972805,37.7956624 27.9324963,38.5528917 C28.1348196,38.8479995 28.2461758,39.2020533 28.2461758,39.5462828 C28.2461758,40.3526337 27.7509542,40.8442282 27.0538014,41.0603635 L27.0538014,41.0902143 C27.8317267,41.227755 28.3371429,41.768849 28.3371429,42.5457269 C28.3371429,43.2239837 27.9426908,43.892794 27.3059214,44.2271991 C26.8012894,44.5026582 26.1849091,44.5714286 25.4975588,44.5714286 L23.6084238,44.5714286 C23.4766784,44.5714286 23.3657143,44.4633609 23.3657143,44.3352667 L23.3657143,37.8742571 L23.3657143,37.8742571 Z M25.1242802,38.9855401 L25.1242802,40.5196474 L25.356011,40.5196474 C25.8516246,40.5196474 26.4472236,40.3722824 26.4472236,39.7231208 C26.4472236,39.2609993 26.0127775,38.9855401 25.5787234,38.9855401 L25.1242802,38.9855401 L25.1242802,38.9855401 Z M25.1242802,41.6309305 L25.1242802,43.1650377 L25.6089151,43.1650377 C26.0433612,43.1650377 26.4578103,42.8604834 26.4578103,42.3787133 C26.4578103,41.8965653 26.1037445,41.6309305 25.6289121,41.6309305 L25.1242802,41.6309305 L25.1242802,41.6309305 Z" id="Fill-17" fill="#FFFFFF" sketch:type="MSShapeGroup"></path>
            <path d="M28.8241621,43.4772127 C28.6551651,43.10664 28.5857143,42.6560267 28.5857143,42.2254235 L28.5857143,37.8786019 C28.5857143,37.7481511 28.6949064,37.6380952 28.8241621,37.6380952 L30.0870093,37.6380952 C30.216265,37.6380952 30.3258429,37.7481511 30.3258429,37.8786019 L30.3258429,42.2254235 C30.3258429,42.7360673 30.5149034,43.226701 31.1908913,43.226701 C31.8668792,43.226701 32.0555539,42.7360673 32.0555539,42.2254235 L32.0555539,37.8786019 C32.0555539,37.7481511 32.1651318,37.6380952 32.2943875,37.6380952 L33.5668807,37.6380952 C33.6961363,37.6380952 33.8057143,37.7481511 33.8057143,37.8786019 L33.8057143,42.2254235 C33.8057143,42.6560267 33.7362635,43.10664 33.5668807,43.4772127 C33.1393724,44.4088394 32.2442286,44.8190476 31.1908913,44.8190476 C30.1367824,44.8190476 29.2516704,44.4088394 28.8241621,43.4772127" id="Fill-18" fill="#FFFFFF" sketch:type="MSShapeGroup"></path>
            <path d="M36.988869,42.4439773 C36.988869,42.0991795 36.7486676,41.8429467 35.8556013,41.2816569 C35.2035149,40.8679753 34.5514286,40.2669448 34.5514286,39.4096814 C34.5514286,38.7991888 34.8726054,38.2575801 35.364298,37.8927227 C35.8657232,37.5286224 36.4376127,37.3904762 37.0593333,37.3904762 C37.5008055,37.3904762 38.1832576,37.4298384 38.6948048,37.5876657 C38.8551986,37.646709 38.895297,37.754955 38.895297,37.8730416 L38.895297,38.8680727 C38.895297,39.0751027 38.8049782,39.1538271 38.6040967,39.1046244 C38.0427184,38.9570161 37.7118089,38.9467971 37.4408524,38.9467971 C37.0994317,38.9467971 36.5980065,39.1046244 36.5980065,39.5379871 C36.5980065,39.8430441 36.8592303,40.0898148 37.5008055,40.4932774 C38.7349032,41.2619758 39.0257143,41.8724684 39.0257143,42.5719044 C39.0257143,43.3500649 38.5542656,44.1380659 37.8017384,44.3942987 C37.5008055,44.5029232 37.1897505,44.5714286 36.56803,44.5714286 C36.1265578,44.5714286 35.3942745,44.5320664 34.89246,44.3746176 C34.7324555,44.3155743 34.6919678,44.2073282 34.6919678,44.0888631 L34.6919678,43.1138917 C34.6919678,42.9167022 34.8227744,42.8281372 34.9827788,42.87734 C35.5344244,43.0351673 35.8758452,43.0446293 36.1366797,43.0446293 C36.557908,43.0446293 36.988869,42.9167022 36.988869,42.4439773" id="Fill-19" fill="#FFFFFF" sketch:type="MSShapeGroup"></path>
            <path d="M39.7714286,37.8742571 C39.7714286,37.7461629 39.8812457,37.6380952 40.0112412,37.6380952 L41.2712279,37.6380952 C41.4012234,37.6380952 41.5114286,37.7461629 41.5114286,37.8742571 L41.5114286,44.3352667 C41.5114286,44.4633609 41.4012234,44.5714286 41.2712279,44.5714286 L40.0112412,44.5714286 C39.8812457,44.5714286 39.7714286,44.4633609 39.7714286,44.3352667 L39.7714286,37.8742571" id="Fill-20" fill="#FFFFFF" sketch:type="MSShapeGroup"></path>
            <path d="M46.1532162,41.4246195 L46.0751409,37.8742571 C46.0751409,37.7461629 46.1725456,37.6380952 46.3097459,37.6380952 L47.4911092,37.6380952 C47.6180764,37.6380952 47.7257143,37.7461629 47.7257143,37.8742571 L47.7257143,44.3352667 C47.7257143,44.4633609 47.6377848,44.5714286 47.4812551,44.5714286 L46.1240327,44.5714286 C45.967882,44.5714286 45.8700983,44.5026582 45.8310607,44.3847663 L44.3464921,41.0210662 L44.3267838,41.0210662 L44.4052381,44.3352667 C44.4052381,44.4633609 44.2976003,44.5714286 44.1706331,44.5714286 L42.9888908,44.5714286 C42.8619236,44.5714286 42.7542857,44.4633609 42.7542857,44.3352667 L42.7542857,37.8742571 C42.7542857,37.7461629 42.8422152,37.6380952 42.9987449,37.6380952 L44.2585626,37.6380952 C44.4052381,37.6380952 44.4931676,37.7072434 44.5416805,37.8251354 L46.1338869,41.4246195 L46.1532162,41.4246195" id="Fill-21" fill="#FFFFFF" sketch:type="MSShapeGroup"></path>
            <path d="M48.9685714,37.8742571 C48.9685714,37.7461629 49.0760004,37.6380952 49.2027213,37.6380952 L52.7115644,37.6380952 C52.8382853,37.6380952 52.9457143,37.7461629 52.9457143,37.8742571 L52.9457143,38.9560672 C52.9457143,39.0841613 52.8382853,39.1824046 52.7115644,39.1824046 L50.6651175,39.1824046 L50.6651175,40.3821067 L52.5753868,40.3821067 C52.7021077,40.3821067 52.7993234,40.4905522 52.7993234,40.6178907 L52.7993234,41.5425115 C52.7993234,41.6702278 52.7021077,41.7786733 52.5753868,41.7786733 L50.6651175,41.7786733 L50.6651175,42.9881997 L52.7115644,42.9881997 C52.8382853,42.9881997 52.9457143,43.0962673 52.9457143,43.2239837 L52.9457143,44.3352667 C52.9457143,44.4633609 52.8382853,44.5714286 52.7115644,44.5714286 L49.2027213,44.5714286 C49.0760004,44.5714286 48.9685714,44.4633609 48.9685714,44.3352667 L48.9685714,37.8742571" id="Fill-22" fill="#FFFFFF" sketch:type="MSShapeGroup"></path>
            <path d="M56.1290811,42.4439773 C56.1290811,42.0991795 55.8884695,41.8429467 54.9953254,41.2816569 C54.3431823,40.8679753 53.6914286,40.2669448 53.6914286,39.4096814 C53.6914286,38.7991888 54.012244,38.2575801 54.5035901,37.8927227 C55.0054483,37.5286224 55.5773875,37.3904762 56.1995515,37.3904762 C56.6410621,37.3904762 57.3231843,37.4298384 57.834776,37.5876657 C57.9951837,37.646709 58.0352857,37.754955 58.0352857,37.8730416 L58.0352857,38.8680727 C58.0352857,39.0751027 57.9453483,39.1538271 57.7444493,39.1046244 C57.1826329,38.9570161 56.8516946,38.9467971 56.5807145,38.9467971 C56.2392641,38.9467971 55.7381846,39.1046244 55.7381846,39.5379871 C55.7381846,39.8430441 55.9986525,40.0898148 56.6410621,40.4932774 C57.8752673,41.2619758 58.1657143,41.8724684 58.1657143,42.5719044 C58.1657143,43.3500649 57.6942246,44.1380659 56.9416319,44.3942987 C56.6410621,44.5029232 56.3295908,44.5714286 55.7078161,44.5714286 C55.2666948,44.5714286 54.5339585,44.5320664 54.0321003,44.3746176 C53.8720819,44.3155743 53.8315907,44.2073282 53.8315907,44.0888631 L53.8315907,43.1138917 C53.8315907,42.9167022 53.9624086,42.8281372 54.1228164,42.87734 C54.6741206,43.0351673 55.0155711,43.0446293 55.2764283,43.0446293 C55.6976933,43.0446293 56.1290811,42.9167022 56.1290811,42.4439773" id="Fill-23" fill="#FFFFFF" sketch:type="MSShapeGroup"></path>
            <g id="Group-29">
                <mask id="mask-2" sketch:name="Clip 25" fill="white">
                    <use xlink:href="#path-1"></use>
                </mask>
                <g id="Clip-25"></g>
                <path d="M60.8565,42.5783197 C60.8565,42.2287352 60.6185973,41.9689451 59.7355088,41.399863 C59.090708,40.9804383 58.4459071,40.3710638 58.4459071,39.5018992 C58.4459071,38.8829312 58.7634956,38.3338034 59.2493097,37.9638808 C59.7455177,37.5947257 60.3110177,37.4546617 60.926177,37.4546617 C61.3627168,37.4546617 62.0371593,37.4945703 62.5429912,37.6545887 C62.7015929,37.7144517 62.7412434,37.8242005 62.7412434,37.9439265 L62.7412434,38.9527714 C62.7412434,39.1626756 62.6523186,39.2424929 62.4536814,39.1926071 C61.8981903,39.0429496 61.5709779,39.0325887 61.3026637,39.0325887 C60.9658274,39.0325887 60.4696195,39.1926071 60.4696195,39.6319861 C60.4696195,39.9412782 60.7279248,40.1914748 61.3627168,40.6005386 C62.5826416,41.3799087 62.8702035,41.9988766 62.8702035,42.7080228 C62.8702035,43.4969864 62.4040221,44.295927 61.6599027,44.5557171 C61.3627168,44.6658496 61.0551372,44.735306 60.4399779,44.735306 C60.003823,44.735306 59.2793363,44.6953974 58.7831283,44.5357627 C58.6245265,44.4758997 58.5852611,44.3661509 58.5852611,44.2460412 L58.5852611,43.2575344 C58.5852611,43.0576074 58.7142212,42.9678129 58.8724381,43.0176987 C59.4179204,43.1777171 59.7555265,43.1873105 60.0134469,43.1873105 C60.429969,43.1873105 60.8565,43.0576074 60.8565,42.5783197" id="Fill-24" fill="#FFFFFF" sketch:type="MSShapeGroup" mask="url(#mask-2)"></path>
                <path d="M70.6721018,56.1887079 C71.0189469,56.1131117 71.3592478,56.2171044 71.5594248,56.4408232 C71.7596018,56.6645419 71.8088761,56.9914859 71.6060044,57.3360819 L67.1505265,64.5633868 C65.8008717,66.2752381 63.118115,65.7986366 61.1506062,63.8987541 C58.8327876,61.6604155 59.2674027,59.2052654 61.3600221,58.6519165 L70.6721018,56.1887079" id="Fill-26" fill="#FFFFFF" sketch:type="MSShapeGroup" mask="url(#mask-2)"></path>
                <path d="M86.2035265,34.2988076 C87.2686991,32.5904099 87.1158717,31.0497054 85.8944071,29.0880412 L68.6033496,1.02381064 C68.3512035,0.651969368 68.0139823,0.3917956 67.5928407,0.328478975 C67.2852611,0.282046784 66.9584336,0.350735728 66.5908009,0.508067948 L64.8431018,1.34307992 C62.9868451,2.30741131 61.9913496,3.73529713 61.6418097,5.25182623 C61.2641681,6.89038374 61.5929204,8.5749897 62.2057699,9.64868616 C64.0019735,12.7953305 75.7396593,30.2434737 75.7396593,30.2434737 C76.1061372,30.7830081 76.3451947,31.4695138 76.3348009,32.1161108 C76.325177,32.7181944 76.089969,33.2826717 75.7904735,33.7458424 L63.2566991,52.9480479 C63.0634513,53.2642473 63.0607566,53.5850515 63.2062699,53.8245035 C63.3748805,54.1011779 63.7275,54.248533 64.1640398,54.1380167 L74.0816549,51.3919939 C74.6902699,51.2135561 75.1776239,50.9817789 75.5745133,50.6605909 C75.9067301,50.3912075 76.1708097,50.063496 76.4244956,49.6816775 L86.2035265,34.2988076" id="Fill-27" fill="#FFFFFF" sketch:type="MSShapeGroup" mask="url(#mask-2)"></path>
                <path d="M14.0362566,8.24344082 C14.3850265,8.15748371 14.7534292,8.21773044 15.1021991,8.38619103 L16.7444204,9.31675355 C18.1637522,10.1751735 19.2404735,11.501369 19.6258142,13.1065414 C20.001531,14.6706539 19.731677,16.4830443 18.5256106,18.3196101 L11.4551283,29.0581097 C10.2298142,30.9119437 10.3503053,31.8421225 11.5040177,33.6146043 L18.7057699,44.6911763 C20.7675929,47.881183 19.3089956,51.5673617 17.0300575,52.8962434 L15.2138363,53.9538229 C14.8515929,54.1514475 14.4697168,54.219369 14.1140177,54.1349468 C13.719823,54.041315 13.3795221,53.765408 13.1096681,53.3690075 L0.711783186,33.5581949 C-0.353774336,31.8497973 -0.200561947,30.3090927 1.02090265,28.3474286 L13.1685664,8.86893233 C13.3933805,8.55081426 13.6874867,8.32978168 14.0362566,8.24344082" id="Fill-28" fill="#FFFFFF" sketch:type="MSShapeGroup" mask="url(#mask-2)"></path>
            </g>
        </g>
    </g>
</svg>